<?xml version="1.0" standalone="no"?>
<!DOCTYPE svg PUBLIC "-//W3C//DTD SVG 20010904//EN"
        "http://www.w3.org/TR/2001/REC-SVG-20010904/DTD/svg10.dtd">
<svg version="1.0" xmlns="http://www.w3.org/2000/svg"
     width="260.000000pt" height="260.000000pt" viewBox="0 0 260.000000 260.000000"
     preserveAspectRatio="xMidYMid meet">
    <metadata>
        Created by potrace 1.11, written by Peter Selinger 2001-2013
    </metadata>
    <g transform="translate(0.000000,260.000000) scale(0.100000,-0.100000)"
       fill="#000000" stroke="none">
        <path d="M1075 2584 c-262 -46 -504 -173 -695 -364 -250 -250 -380 -565 -380
-920 0 -355 130 -669 380 -920 248 -249 565 -380 920 -380 355 0 672 131 920
380 250 251 380 565 380 920 0 355 -130 670 -380 920 -194 194 -433 318 -699
364 -116 20 -334 20 -446 0z m-250 -713 c127 -15 189 -43 265 -120 112 -112
153 -232 153 -441 0 -305 -114 -493 -339 -556 -46 -13 -118 -18 -326 -21
l-268 -5 0 576 0 576 218 0 c119 0 253 -4 297 -9z m775 -278 l0 -288 288 288
287 287 95 -1 95 0 -239 -233 -239 -233 228 -309 c125 -170 239 -324 253 -341
l24 -33 -98 0 -99 1 -200 285 c-110 157 -203 288 -206 290 -4 2 -48 -35 -98
-82 l-91 -86 0 -204 0 -204 -75 0 -75 0 0 575 0 575 75 0 75 0 0 -287z"/>
        <path d="M450 1305 l0 -437 203 4 203 3 59 30 c100 51 153 143 175 306 31 228
-34 416 -170 493 l-55 31 -207 3 -208 4 0 -437z"/>
    </g>
</svg>
