<?xml version="1.0" standalone="no"?>
<!DOCTYPE svg PUBLIC "-//W3C//DTD SVG 20010904//EN"
        "http://www.w3.org/TR/2001/REC-SVG-20010904/DTD/svg10.dtd">
<svg version="1.0" xmlns="http://www.w3.org/2000/svg"
     width="260.000000pt" height="260.000000pt" viewBox="0 0 260.000000 260.000000"
     preserveAspectRatio="xMidYMid meet">
    <metadata>
        Created by potrace 1.11, written by Peter Selinger 2001-2013
    </metadata>
    <g transform="translate(0.000000,260.000000) scale(0.100000,-0.100000)"
       fill="#000000" stroke="none">
        <path d="M1131 2590 c-556 -78 -987 -483 -1107 -1041 -26 -118 -26 -380 0
-498 59 -273 167 -474 360 -667 193 -193 394 -301 667 -360 118 -26 380 -26
498 0 517 111 900 484 1019 990 22 96 26 134 26 281 0 128 -4 191 -18 254 -59
273 -167 474 -360 667 -190 189 -384 296 -646 355 -99 23 -340 33 -439 19z
m-240 -724 c161 -34 263 -132 326 -313 26 -73 28 -88 27 -243 0 -152 -2 -171
-27 -245 -61 -183 -168 -285 -336 -321 -47 -10 -141 -14 -323 -14 l-258 0 0
575 0 575 263 0 c187 0 281 -4 328 -14z m709 -268 l0 -283 283 283 282 282
105 0 105 0 -238 -231 c-139 -136 -236 -237 -233 -245 3 -7 113 -160 245 -339
133 -179 241 -328 241 -330 0 -3 -45 -5 -99 -5 l-99 0 -204 290 -203 289 -92
-92 -93 -92 0 -197 0 -198 -80 0 -80 0 0 575 0 575 80 0 80 0 0 -282z"/>
        <path d="M460 1305 l0 -437 188 4 c162 4 195 8 244 27 130 50 198 193 198 417
0 154 -28 245 -101 327 -67 77 -112 90 -336 95 l-193 5 0 -438z"/>
    </g>
</svg>
